# xmcd CD database file
#
# Track frame offsets:
#	150
#	23963
#	40759
#	58100
#	72488
#	83309
#	97564
#	120038
#	134868
#	147258
#	160764
#
# Disc length: 2447 seconds
#
# Revision: 0
# Processed by: cddbd v1.5.2PL0 Copyright (c) Steve Scherf et al.
# Submitted via: CDex 1.51
#
DISCID=86098d0b
DTITLE=Whitey Morgan - Whitey Morgan and the 78's
DYEAR=2010
DGENRE=Country
TTITLE0=Bad News
TTITLE1=Turn Up The Bottle
TTITLE2=Memories Cost A Lot
TTITLE3=Buick City
TTITLE4=Meanest Jukebox in Town
TTITLE5=Cheaters Always Lose
TTITLE6=Hard Scratch Pride
TTITLE7=Honky Tonk Queen
TTITLE8=Where Do You Want It?
TTITLE9=I Ain't Drunk
TTITLE10=Long Road Home
EXTD=YEAR: 2010
EXTT0=
EXTT1=
EXTT2=
EXTT3=
EXTT4=
EXTT5=
EXTT6=
EXTT7=
EXTT8=
EXTT9=
EXTT10=
PLAYORDER=
